<svg width="447" height="162" viewBox="0 0 447 162" fill="none" xmlns="http://www.w3.org/2000/svg">
<mask id="path-1-outside-1_17_322" maskUnits="userSpaceOnUse" x="120" y="22" width="210" height="103" fill="black">
<rect fill="white" x="120" y="22" width="210" height="103"/>
<path d="M173.71 28.4C175.16 28.4 175.886 32.1973 175.886 39.792C175.886 47.3013 175.16 51.056 173.71 51.056H150.286V65.648H165.902C167.352 65.648 168.078 68.976 168.078 75.632C168.078 82.2027 167.395 85.488 166.03 85.488H150.286V116.336C150.286 117.531 148.664 118.299 145.422 118.64C142.264 119.067 139.619 119.28 137.486 119.28L131.47 119.024C127.288 118.512 125.198 117.659 125.198 116.464V31.728C125.198 30.3627 125.454 29.4667 125.966 29.04C126.563 28.6133 127.416 28.4 128.526 28.4H173.71ZM208.997 117.232C208.997 117.915 205.071 118.256 197.221 118.256C189.455 118.256 185.573 117.957 185.573 117.36V54.512C185.573 53.9147 189.455 53.616 197.221 53.616C205.071 53.616 208.997 53.872 208.997 54.384V117.232ZM208.997 46.832C208.997 47.4293 205.071 47.728 197.221 47.728C189.455 47.728 185.573 47.472 185.573 46.96V28.528C185.573 27.6747 189.455 27.248 197.221 27.248C205.071 27.248 208.997 27.504 208.997 28.016V46.832ZM250.013 117.232C250.013 118.256 246.429 118.768 239.261 118.768C230.727 118.427 226.461 117.872 226.461 117.104V71.792H219.933C218.226 71.792 217.373 68.848 217.373 62.96C217.373 61.424 217.501 59.5467 217.757 57.328C218.098 55.1093 218.738 54 219.677 54H226.461V42.736C226.461 41.0293 230.045 40.176 237.213 40.176C244.466 40.176 248.093 40.8587 248.093 42.224V50.416L248.221 54H259.101C260.551 54 261.277 56.9867 261.277 62.96C261.277 68.9333 260.551 71.92 259.101 71.92H250.013V117.232ZM273.202 110.448C267.911 104.56 265.266 96.4107 265.266 86C265.266 75.5893 267.911 67.44 273.202 61.552C278.578 55.664 285.788 52.72 294.833 52.72C303.879 52.72 311.047 55.664 316.338 61.552C321.628 67.44 324.274 75.5893 324.274 86C324.274 96.4107 321.628 104.56 316.338 110.448C311.047 116.336 303.879 119.28 294.833 119.28C285.788 119.28 278.578 116.336 273.202 110.448ZM294.833 74.096C290.055 74.096 287.666 78.0213 287.666 85.872C287.666 93.7227 290.055 97.648 294.833 97.648C299.698 97.648 302.13 93.7227 302.13 85.872C302.13 78.0213 299.698 74.096 294.833 74.096Z"/>
</mask>
<path d="M173.71 28.4C175.16 28.4 175.886 32.1973 175.886 39.792C175.886 47.3013 175.16 51.056 173.71 51.056H150.286V65.648H165.902C167.352 65.648 168.078 68.976 168.078 75.632C168.078 82.2027 167.395 85.488 166.03 85.488H150.286V116.336C150.286 117.531 148.664 118.299 145.422 118.64C142.264 119.067 139.619 119.28 137.486 119.28L131.47 119.024C127.288 118.512 125.198 117.659 125.198 116.464V31.728C125.198 30.3627 125.454 29.4667 125.966 29.04C126.563 28.6133 127.416 28.4 128.526 28.4H173.71ZM208.997 117.232C208.997 117.915 205.071 118.256 197.221 118.256C189.455 118.256 185.573 117.957 185.573 117.36V54.512C185.573 53.9147 189.455 53.616 197.221 53.616C205.071 53.616 208.997 53.872 208.997 54.384V117.232ZM208.997 46.832C208.997 47.4293 205.071 47.728 197.221 47.728C189.455 47.728 185.573 47.472 185.573 46.96V28.528C185.573 27.6747 189.455 27.248 197.221 27.248C205.071 27.248 208.997 27.504 208.997 28.016V46.832ZM250.013 117.232C250.013 118.256 246.429 118.768 239.261 118.768C230.727 118.427 226.461 117.872 226.461 117.104V71.792H219.933C218.226 71.792 217.373 68.848 217.373 62.96C217.373 61.424 217.501 59.5467 217.757 57.328C218.098 55.1093 218.738 54 219.677 54H226.461V42.736C226.461 41.0293 230.045 40.176 237.213 40.176C244.466 40.176 248.093 40.8587 248.093 42.224V50.416L248.221 54H259.101C260.551 54 261.277 56.9867 261.277 62.96C261.277 68.9333 260.551 71.92 259.101 71.92H250.013V117.232ZM273.202 110.448C267.911 104.56 265.266 96.4107 265.266 86C265.266 75.5893 267.911 67.44 273.202 61.552C278.578 55.664 285.788 52.72 294.833 52.72C303.879 52.72 311.047 55.664 316.338 61.552C321.628 67.44 324.274 75.5893 324.274 86C324.274 96.4107 321.628 104.56 316.338 110.448C311.047 116.336 303.879 119.28 294.833 119.28C285.788 119.28 278.578 116.336 273.202 110.448ZM294.833 74.096C290.055 74.096 287.666 78.0213 287.666 85.872C287.666 93.7227 290.055 97.648 294.833 97.648C299.698 97.648 302.13 93.7227 302.13 85.872C302.13 78.0213 299.698 74.096 294.833 74.096Z" fill="#FFA3A3"/>
<path d="M150.286 51.056V46.056H145.286V51.056H150.286ZM150.286 65.648H145.286V70.648H150.286V65.648ZM150.286 85.488V80.488H145.286V85.488H150.286ZM145.422 118.64L144.898 113.667L144.825 113.675L144.752 113.685L145.422 118.64ZM137.486 119.28L137.273 124.275L137.379 124.28H137.486V119.28ZM131.47 119.024L130.862 123.987L131.059 124.011L131.257 124.019L131.47 119.024ZM125.966 29.04L123.059 24.9713L122.908 25.0796L122.765 25.1989L125.966 29.04ZM173.71 33.4C171.472 33.4 170.45 31.8194 170.323 31.5979C170.186 31.3579 170.286 31.4307 170.43 32.1861C170.702 33.606 170.886 36.0698 170.886 39.792H180.886C180.886 35.9195 180.707 32.6873 180.253 30.3099C180.034 29.1666 179.681 27.8154 179 26.6261C178.329 25.4552 176.672 23.4 173.71 23.4V33.4ZM170.886 39.792C170.886 43.4706 170.701 45.8981 170.432 47.2916C170.289 48.0333 170.191 48.0936 170.335 47.8449C170.476 47.6032 171.5 46.056 173.71 46.056V56.056C176.644 56.056 178.303 54.0394 178.988 52.8591C179.676 51.6718 180.031 50.3241 180.251 49.1884C180.707 46.8272 180.886 43.6228 180.886 39.792H170.886ZM173.71 46.056H150.286V56.056H173.71V46.056ZM145.286 51.056V65.648H155.286V51.056H145.286ZM150.286 70.648H165.902V60.648H150.286V70.648ZM165.902 70.648C163.988 70.648 162.943 69.4286 162.669 69.0082C162.451 68.6759 162.518 68.6093 162.648 69.2087C162.893 70.332 163.078 72.3912 163.078 75.632H173.078C173.078 72.2168 172.899 69.284 172.419 67.0792C172.187 66.0147 171.8 64.7001 171.038 63.5357C170.22 62.2834 168.54 60.648 165.902 60.648V70.648ZM163.078 75.632C163.078 78.8347 162.904 80.8817 162.67 82.0068C162.545 82.6103 162.479 82.5538 162.682 82.227C162.921 81.8438 163.98 80.488 166.03 80.488V90.488C168.762 90.488 170.418 88.7215 171.169 87.517C171.884 86.3689 172.245 85.0804 172.461 84.0412C172.91 81.8809 173.078 79 173.078 75.632H163.078ZM166.03 80.488H150.286V90.488H166.03V80.488ZM145.286 85.488V116.336H155.286V85.488H145.286ZM145.286 116.336C145.286 115.393 145.641 114.555 146.127 113.968C146.541 113.466 146.925 113.291 146.929 113.289C146.952 113.278 146.817 113.343 146.438 113.429C146.072 113.513 145.567 113.597 144.898 113.667L145.945 123.613C147.747 123.423 149.632 123.074 151.21 122.327C152.78 121.583 155.286 119.76 155.286 116.336H145.286ZM144.752 113.685C141.72 114.095 139.315 114.28 137.486 114.28V124.28C139.923 124.28 142.809 124.039 146.091 123.595L144.752 113.685ZM137.698 114.285L131.682 114.029L131.257 124.019L137.273 124.275L137.698 114.285ZM132.077 114.061C130.117 113.821 129.077 113.543 128.655 113.371C128.441 113.283 128.705 113.349 129.088 113.724C129.302 113.933 129.587 114.274 129.819 114.765C130.059 115.275 130.198 115.857 130.198 116.464H120.198C120.198 120.473 123.686 122.144 124.876 122.629C126.545 123.311 128.641 123.715 130.862 123.987L132.077 114.061ZM130.198 116.464V31.728H120.198V116.464H130.198ZM130.198 31.728C130.198 31.3153 130.241 31.252 130.197 31.4056C130.155 31.5516 129.933 32.2426 129.166 32.8811L122.765 25.1989C121.486 26.264 120.88 27.6164 120.582 28.6584C120.282 29.708 120.198 30.7754 120.198 31.728H130.198ZM128.872 33.1087C128.57 33.3244 128.33 33.3947 128.266 33.4107C128.209 33.425 128.279 33.4 128.526 33.4V23.4C126.876 23.4 124.838 23.701 123.059 24.9713L128.872 33.1087ZM128.526 33.4H173.71V23.4H128.526V33.4ZM203.997 117.232C203.997 114.627 205.887 113.399 206.213 113.201C206.494 113.03 206.719 112.939 206.819 112.901C206.93 112.859 206.997 112.842 206.998 112.842C207.003 112.841 206.976 112.848 206.907 112.861C206.84 112.874 206.747 112.89 206.623 112.908C206.374 112.944 206.043 112.982 205.619 113.019C203.881 113.17 201.113 113.256 197.221 113.256V123.256C201.178 123.256 204.299 123.171 206.486 122.981C207.538 122.89 208.613 122.755 209.523 122.518C209.938 122.41 210.672 122.193 211.412 121.743C211.983 121.395 213.997 120.008 213.997 117.232H203.997ZM197.221 113.256C193.367 113.256 190.611 113.181 188.868 113.047C187.959 112.977 187.534 112.905 187.425 112.88C187.327 112.858 187.658 112.916 188.125 113.168C188.252 113.236 190.573 114.438 190.573 117.36H180.573C180.573 120.431 183.014 121.773 183.384 121.972C184.094 122.355 184.788 122.534 185.176 122.624C186.038 122.823 187.069 122.938 188.101 123.017C190.241 123.182 193.309 123.256 197.221 123.256V113.256ZM190.573 117.36V54.512H180.573V117.36H190.573ZM190.573 54.512C190.573 57.4338 188.252 58.6359 188.125 58.7044C187.658 58.9559 187.327 59.0145 187.425 58.992C187.534 58.9668 187.959 58.8952 188.868 58.8253C190.611 58.6912 193.367 58.616 197.221 58.616V48.616C193.309 48.616 190.241 48.6901 188.101 48.8547C187.069 48.9341 186.038 49.0492 185.176 49.248C184.788 49.3375 184.094 49.5175 183.384 49.8996C183.014 50.0988 180.573 51.4409 180.573 54.512H190.573ZM197.221 58.616C201.122 58.616 203.933 58.6804 205.727 58.7974C206.657 58.8581 207.134 58.9224 207.3 58.955C207.428 58.98 207.154 58.943 206.736 58.7524C206.537 58.6615 206.004 58.403 205.454 57.8652C204.862 57.286 203.997 56.1069 203.997 54.384H213.997C213.997 52.5971 213.1 51.356 212.447 50.7168C211.836 50.119 211.211 49.8025 210.889 49.6556C210.226 49.353 209.583 49.212 209.221 49.141C208.406 48.9816 207.41 48.8859 206.378 48.8186C204.247 48.6796 201.17 48.616 197.221 48.616V58.616ZM203.997 54.384V117.232H213.997V54.384H203.997ZM203.997 46.832C203.997 45.3795 204.626 44.2893 205.19 43.6454C205.703 43.0594 206.227 42.7539 206.462 42.6289C206.925 42.3824 207.25 42.326 207.148 42.3494C207.03 42.3763 206.594 42.4484 205.673 42.5184C203.907 42.6528 201.117 42.728 197.221 42.728V52.728C201.174 52.728 204.273 52.6538 206.432 52.4896C207.474 52.4103 208.51 52.2957 209.373 52.0986C209.762 52.01 210.455 51.8323 211.163 51.4551C211.513 51.2684 213.997 49.9307 213.997 46.832H203.997ZM197.221 42.728C193.362 42.728 190.585 42.6636 188.813 42.5468C187.895 42.4862 187.429 42.4222 187.271 42.391C187.147 42.3666 187.428 42.4053 187.85 42.6002C188.052 42.6936 188.586 42.9559 189.134 43.498C189.726 44.0833 190.573 45.2571 190.573 46.96H180.573C180.573 48.7269 181.45 49.9627 182.102 50.608C182.711 51.2101 183.335 51.5304 183.659 51.6798C184.324 51.9867 184.968 52.1294 185.33 52.201C186.143 52.3617 187.133 52.4578 188.156 52.5252C190.267 52.6644 193.313 52.728 197.221 52.728V42.728ZM190.573 46.96V28.528H180.573V46.96H190.573ZM190.573 28.528C190.573 30.5669 189.35 31.7705 188.803 32.1911C188.513 32.4146 188.265 32.5437 188.132 32.6073C187.991 32.6744 187.894 32.7073 187.866 32.7166C187.844 32.7238 188.154 32.6344 189.031 32.5381C190.69 32.3557 193.379 32.248 197.221 32.248V22.248C193.296 22.248 190.161 22.3536 187.938 22.5979C186.874 22.7149 185.728 22.8921 184.735 23.2194C184.265 23.3742 183.474 23.6742 182.706 24.2649C181.916 24.8722 180.573 26.2758 180.573 28.528H190.573ZM197.221 32.248C201.122 32.248 203.933 32.3124 205.727 32.4294C206.657 32.4901 207.134 32.5544 207.3 32.587C207.428 32.612 207.154 32.575 206.736 32.3844C206.537 32.2935 206.004 32.0349 205.454 31.4972C204.862 30.918 203.997 29.7389 203.997 28.016H213.997C213.997 26.2291 213.1 24.988 212.447 24.3488C211.836 23.751 211.211 23.4345 210.889 23.2876C210.226 22.985 209.583 22.844 209.221 22.773C208.406 22.6136 207.41 22.5179 206.378 22.4506C204.247 22.3116 201.17 22.248 197.221 22.248V32.248ZM203.997 28.016V46.832H213.997V28.016H203.997ZM239.261 118.768L239.061 123.764L239.161 123.768H239.261V118.768ZM226.461 71.792H231.461V66.792H226.461V71.792ZM217.757 57.328L212.815 56.5677L212.8 56.6611L212.789 56.7549L217.757 57.328ZM226.461 54V59H231.461V54H226.461ZM248.093 50.416H243.093V50.5053L243.096 50.5945L248.093 50.416ZM248.221 54L243.224 54.1785L243.396 59H248.221V54ZM250.013 71.92V66.92H245.013V71.92H250.013ZM245.013 117.232C245.013 115.734 245.719 114.646 246.309 114.056C246.822 113.543 247.292 113.342 247.371 113.308C247.535 113.238 247.382 113.325 246.617 113.434C245.189 113.638 242.79 113.768 239.261 113.768V123.768C242.899 123.768 245.876 123.642 248.032 123.334C249.059 123.187 250.25 122.954 251.31 122.5C251.893 122.25 255.013 120.846 255.013 117.232H245.013ZM239.46 113.772C235.228 113.603 232.209 113.385 230.305 113.138C229.313 113.009 228.855 112.9 228.741 112.864C228.649 112.836 228.985 112.921 229.444 113.228C229.756 113.438 231.461 114.653 231.461 117.104H221.461C221.461 119.747 223.298 121.148 223.877 121.536C224.603 122.022 225.339 122.279 225.78 122.416C226.732 122.711 227.875 122.906 229.016 123.054C231.378 123.361 234.76 123.592 239.061 123.764L239.46 113.772ZM231.461 117.104V71.792H221.461V117.104H231.461ZM226.461 66.792H219.933V76.792H226.461V66.792ZM219.933 66.792C220.466 66.792 221.024 66.9136 221.543 67.1691C222.045 67.4166 222.384 67.7268 222.586 67.9591C222.936 68.3625 222.929 68.5873 222.815 68.192C222.59 67.4161 222.373 65.7816 222.373 62.96H212.373C212.373 66.0264 212.582 68.8079 213.21 70.976C213.522 72.0527 214.049 73.3815 215.039 74.5209C216.158 75.8074 217.843 76.792 219.933 76.792V66.792ZM222.373 62.96C222.373 61.68 222.481 60.0066 222.724 57.9011L212.789 56.7549C212.52 59.0867 212.373 61.168 212.373 62.96H222.373ZM222.698 58.0883C222.759 57.6941 222.82 57.4361 222.864 57.2862C222.912 57.1248 222.916 57.1699 222.823 57.3306C222.733 57.487 222.463 57.9057 221.903 58.299C221.284 58.7344 220.501 59 219.677 59V49C216.79 49 215.007 50.8676 214.162 52.3334C213.382 53.6843 213.019 55.2362 212.815 56.5677L222.698 58.0883ZM219.677 59H226.461V49H219.677V59ZM231.461 54V42.736H221.461V54H231.461ZM231.461 42.736C231.461 44.3813 230.482 45.3678 230.039 45.6847C229.723 45.9101 229.673 45.8309 230.307 45.68C231.513 45.3929 233.725 45.176 237.213 45.176V35.176C233.532 35.176 230.368 35.3858 227.99 35.952C226.832 36.2278 225.438 36.6819 224.226 37.5473C222.887 38.5042 221.461 40.2374 221.461 42.736H231.461ZM237.213 45.176C240.765 45.176 243.106 45.3493 244.448 45.6017C245.164 45.7366 245.211 45.8269 244.954 45.6818C244.731 45.5559 243.093 44.52 243.093 42.224H253.093C253.093 39.2453 251.001 37.6121 249.871 36.9742C248.707 36.3171 247.394 35.9807 246.297 35.7743C244.012 35.3441 240.913 35.176 237.213 35.176V45.176ZM243.093 42.224V50.416H253.093V42.224H243.093ZM243.096 50.5945L243.224 54.1785L253.217 53.8215L253.089 50.2375L243.096 50.5945ZM248.221 59H259.101V49H248.221V59ZM259.101 59C258.376 59 257.673 58.8011 257.075 58.4497C256.514 58.1195 256.179 57.7348 256.011 57.5043C255.725 57.1115 255.758 56.943 255.874 57.42C256.092 58.3169 256.277 60.0722 256.277 62.96H266.277C266.277 59.8744 266.099 57.1497 265.591 55.06C265.344 54.0437 264.924 52.7552 264.094 51.6157C263.166 50.3423 261.491 49 259.101 49V59ZM256.277 62.96C256.277 65.8478 256.092 67.6031 255.874 68.5C255.758 68.977 255.725 68.8085 256.011 68.4157C256.179 68.1852 256.514 67.8005 257.075 67.4703C257.673 67.1189 258.376 66.92 259.101 66.92V76.92C261.491 76.92 263.166 75.5777 264.094 74.3043C264.924 73.1648 265.344 71.8763 265.591 70.86C266.099 68.7703 266.277 66.0456 266.277 62.96H256.277ZM259.101 66.92H250.013V76.92H259.101V66.92ZM245.013 71.92V117.232H255.013V71.92H245.013ZM273.202 110.448L269.482 113.79L269.496 113.805L269.509 113.819L273.202 110.448ZM273.202 61.552L269.509 58.1807L269.496 58.1953L269.482 58.2102L273.202 61.552ZM316.338 61.552L312.618 64.8938L312.618 64.8938L316.338 61.552ZM316.338 110.448L312.618 107.106L316.338 110.448ZM276.921 107.106C272.686 102.394 270.266 95.5742 270.266 86H260.266C260.266 97.2472 263.135 106.726 269.482 113.79L276.921 107.106ZM270.266 86C270.266 76.4258 272.686 69.6062 276.921 64.8938L269.482 58.2102C263.135 65.2738 260.266 74.7528 260.266 86H270.266ZM276.894 64.9233C281.19 60.2177 286.984 57.72 294.833 57.72V47.72C284.592 47.72 275.965 51.1103 269.509 58.1807L276.894 64.9233ZM294.833 57.72C302.684 57.72 308.416 60.217 312.618 64.8938L320.057 58.2102C313.678 51.111 305.074 47.72 294.833 47.72V57.72ZM312.618 64.8938C316.853 69.6062 319.274 76.4258 319.274 86H329.274C329.274 74.7528 326.404 65.2738 320.057 58.2102L312.618 64.8938ZM319.274 86C319.274 95.5742 316.853 102.394 312.618 107.106L320.057 113.79C326.404 106.726 329.274 97.2472 329.274 86H319.274ZM312.618 107.106C308.416 111.783 302.684 114.28 294.833 114.28V124.28C305.074 124.28 313.678 120.889 320.057 113.79L312.618 107.106ZM294.833 114.28C286.984 114.28 281.19 111.782 276.894 107.077L269.509 113.819C275.965 120.89 284.592 124.28 294.833 124.28V114.28ZM294.833 69.096C290.784 69.096 287.332 70.916 285.187 74.4403C283.286 77.5624 282.666 81.6022 282.666 85.872H292.666C292.666 82.2911 293.24 80.443 293.728 79.6397C293.928 79.312 294.064 79.2366 294.099 79.2175C294.143 79.1935 294.335 79.096 294.833 79.096V69.096ZM282.666 85.872C282.666 90.1418 283.286 94.1816 285.187 97.3037C287.332 100.828 290.784 102.648 294.833 102.648V92.648C294.335 92.648 294.143 92.5505 294.099 92.5265C294.064 92.5074 293.928 92.432 293.728 92.1043C293.24 91.301 292.666 89.4529 292.666 85.872H282.666ZM294.833 102.648C298.885 102.648 302.371 100.864 304.556 97.3374C306.496 94.2062 307.13 90.1514 307.13 85.872H297.13C297.13 89.4432 296.547 91.2765 296.055 92.0706C295.854 92.3948 295.711 92.4793 295.657 92.5088C295.59 92.5446 295.367 92.648 294.833 92.648V102.648ZM307.13 85.872C307.13 81.5926 306.496 77.5378 304.556 74.4066C302.371 70.88 298.885 69.096 294.833 69.096V79.096C295.367 79.096 295.59 79.1994 295.657 79.2352C295.711 79.2647 295.854 79.3492 296.055 79.6734C296.547 80.4675 297.13 82.3008 297.13 85.872H307.13Z" fill="#C92B2B" mask="url(#path-1-outside-1_17_322)"/>
<circle cx="59.5" cy="72.5" r="38.5" stroke="#FFA3A3" stroke-width="14" stroke-linecap="round" stroke-dasharray="28 28"/>
</svg>
